<svg width="32" height="13" viewBox="0 0 32 13" fill="none" xmlns="http://www.w3.org/2000/svg">
<path d="M31.7209 1.60523C31.2702 1.14123 25.6498 0.632785 19.9316 1.27723C18.7911 1.40523 18.72 1.73056 15.9982 1.83723C13.2773 1.73145 13.2062 1.40612 12.0649 1.27723C6.34667 0.632785 0.726226 1.14212 0.275559 1.60523C0.0515592 1.83723 0.0515592 3.45145 0.275559 3.68345C0.501337 3.91545 1.19556 4.22212 1.52267 5.30745C1.73334 6.00701 1.96267 10.5199 3.55023 11.8648C5.12178 13.1963 10.1831 12.9466 11.84 12.0977C14.0942 10.9439 14.4107 6.95545 14.7662 5.30745C14.9467 4.47278 15.7991 4.40434 15.9973 4.40434C16.1956 4.40434 17.048 4.47278 17.2284 5.30745C17.5849 6.95456 17.9013 10.943 20.1547 12.0977C21.8124 12.9466 26.8729 13.1963 28.4444 11.8648C30.032 10.5199 30.2613 6.00701 30.472 5.30745C30.7991 4.22301 31.4933 3.91545 31.7191 3.68345C31.9449 3.45234 31.9449 1.83723 31.7209 1.60523Z" fill="#F9F9F9"/>
<path d="M13.017 4.95463C12.9299 6.07019 12.5539 9.36885 11.4552 10.3617C10.2321 11.4666 5.89965 11.7555 4.53077 10.4009C3.81254 9.69063 3.13788 6.8293 3.19477 4.34219C3.22854 2.84974 5.2161 2.54663 8.04988 2.54663C10.8481 2.54663 13.1725 2.96263 13.017 4.95463ZM18.9788 4.95463C19.0659 6.07019 19.4419 9.36885 20.5405 10.3617C21.7637 11.4666 26.0961 11.7555 27.465 10.4009C28.1832 9.69063 28.8579 6.8293 28.801 4.34219C28.7672 2.84974 26.7797 2.54663 23.9459 2.54663C21.1485 2.54663 18.8232 2.96263 18.9788 4.95463Z" fill="#1D1E33"/>
</svg>
