<svg width="30" height="30" viewBox="0 0 30 30" fill="none" xmlns="http://www.w3.org/2000/svg">
<path d="M1.66602 15.0003C1.66602 22.3643 7.63535 28.3337 14.9993 28.3337C22.3633 28.3337 28.3327 22.3643 28.3327 15.0003C28.3327 7.63633 22.3633 1.66699 14.9993 1.66699C7.63535 1.66699 1.66602 7.63633 1.66602 15.0003Z" stroke="#FF1A1A" stroke-width="1.5" stroke-linecap="round" stroke-linejoin="round"/>
<path d="M16.3326 1.73364C16.3326 1.73364 20.3326 7.00031 20.3326 15.0003C20.3326 23.0003 16.3326 28.267 16.3326 28.267M13.666 28.267C13.666 28.267 9.66598 23.0003 9.66598 15.0003C9.66598 7.00031 13.666 1.73364 13.666 1.73364M2.50598 19.667H27.4927M2.50598 10.3336H27.4927" stroke="#FF1A1A" stroke-width="1.5" stroke-linecap="round" stroke-linejoin="round"/>
</svg>
