<svg width="30" height="30" viewBox="0 0 30 30" fill="none" xmlns="http://www.w3.org/2000/svg">
<path d="M1.66602 15.0001C1.66602 22.3641 7.63535 28.3334 14.9993 28.3334C22.3633 28.3334 28.3327 22.3641 28.3327 15.0001C28.3327 7.63608 22.3633 1.66675 14.9993 1.66675C7.63535 1.66675 1.66602 7.63608 1.66602 15.0001Z" stroke="white" stroke-width="1.5" stroke-linecap="round" stroke-linejoin="round"/>
<path d="M16.3326 1.7334C16.3326 1.7334 20.3326 7.00006 20.3326 15.0001C20.3326 23.0001 16.3326 28.2667 16.3326 28.2667M13.666 28.2667C13.666 28.2667 9.66598 23.0001 9.66598 15.0001C9.66598 7.00006 13.666 1.7334 13.666 1.7334M2.50598 19.6667H27.4927M2.50598 10.3334H27.4927" stroke="white" stroke-width="1.5" stroke-linecap="round" stroke-linejoin="round"/>
</svg>
